# xmcd
#
# Track frame offsets:
#	150
#	12025
#	24606
#	37267
#	51706
#	65223
#	77188
#	88348
#	101730
#	114497
#	128917
#	143768
#	155476
#	168864
#	180691
#
# Disc length: 2594 seconds
#
# Revision: 3
# Processed by: cddbd v1.5.2PL0 Copyright (c) Steve Scherf et al.
# Submitted via: EasyCDDAExtractor 10.0.3.1
#
DISCID=d70a200f
DTITLE=Various Artist - Best Of Blues - Disc 2
DYEAR=2004
DGENRE=Blues
TTITLE0=Muddy Waters - You're Gonna Miss Me
TTITLE1=Memphis Slim - Rockin' The House
TTITLE2=T-Bone Walker - Hypin' Woman Blues
TTITLE3=John Lee Hooker - Sally Mae
TTITLE4=Sonny Boy Williamson - Better Cut That Out
TTITLE5=Lowell Fulson - I Wanna See My Baby
TTITLE6=Big Bill Broozy - All By Myself
TTITLE7=Joe Turner - I'm In Sharp When I Hit The Coast
TTITLE8=Amos Milburn - Chicken Shack Boogie
TTITLE9=Leadbelly - Dead Letter Blues
TTITLE10=Lonnie Johnson - He's A Jolly Roll Baker
TTITLE11=Arthur Crudup - Mean Old Frisco
TTITLE12=Robert Johnson - I Believe I'll Dust My Broom
TTITLE13=Champion Jack Dupree - Big Time Mama
TTITLE14=Blind Boy Fuller - Rag Mama Rag
EXTD=
EXTT0=
EXTT1=
EXTT2=
EXTT3=
EXTT4=
EXTT5=
EXTT6=
EXTT7=
EXTT8=
EXTT9=
EXTT10=
EXTT11=
EXTT12=
EXTT13=
EXTT14=
PLAYORDER=
